<svg width="100" height="100" viewBox="0 0 100 100" fill="none" xmlns="http://www.w3.org/2000/svg">
<path d="M8.33203 50C8.33203 32.3223 8.33203 23.4835 14.434 17.9917C20.5359 12.5 30.3569 12.5 49.9987 12.5C69.6404 12.5 79.4616 12.5 85.5633 17.9917C91.6654 23.4835 91.6654 32.3223 91.6654 50C91.6654 67.6775 91.6654 76.5167 85.5633 82.0083C79.4616 87.5 69.6404 87.5 49.9987 87.5C30.3569 87.5 20.5359 87.5 14.434 82.0083C8.33203 76.5167 8.33203 67.6775 8.33203 50Z" stroke="#141B34" stroke-width="3" stroke-linecap="round" stroke-linejoin="round"/>
<path d="M20.832 68.75C25.8667 57.9954 44.6329 57.2879 49.9987 68.75M43.7487 39.5833C43.7487 44.1858 40.0177 47.9167 35.4154 47.9167C30.813 47.9167 27.082 44.1858 27.082 39.5833C27.082 34.981 30.813 31.25 35.4154 31.25C40.0177 31.25 43.7487 34.981 43.7487 39.5833Z" stroke="#141B34" stroke-width="3" stroke-linecap="round"/>
<path d="M62.5 41.666H79.1667" stroke="#141B34" stroke-width="3" stroke-linecap="round" stroke-linejoin="round"/>
<path d="M62.5 58.334H79.1667" stroke="#141B34" stroke-width="3" stroke-linecap="round" stroke-linejoin="round"/>
</svg>
